<svg width="36" height="44" viewBox="0 0 36 44" fill="none" xmlns="http://www.w3.org/2000/svg">
<path d="M2.77783 5.24025L17.9979 2.77539L33.218 5.24025V17.3258C33.218 25.5829 28.8205 33.2739 21.5447 37.7416L17.9979 39.9195L14.4511 37.7416C7.17535 33.2739 2.77783 25.5829 2.77783 17.3258V5.24025Z" fill="#0D78DE"/>
<path fill-rule="evenodd" clip-rule="evenodd" d="M0 2.99856L18 0.0834961L36 2.99856V17.325C36 26.4845 31.1219 35.016 23.0509 39.972L18 43.0735L12.9491 39.972C4.87813 35.016 0 26.4845 0 17.325V2.99856ZM18 2.77457L2.77992 5.23943V17.325C2.77992 25.5821 7.17745 33.273 14.4532 37.7407L18 39.9186L21.5468 37.7407C28.8226 33.273 33.2201 25.5821 33.2201 17.325V5.23943L18 2.77457Z" fill="black"/>
<path d="M3.97701 17.3258V6.26085L17.9979 3.9902L32.0188 6.26085V17.3258C32.0188 25.1491 27.8525 32.461 20.9172 36.7197L17.9979 38.5122L15.0786 36.7197C8.14334 32.461 3.97701 25.1491 3.97701 17.3258Z" fill="#0D78DE" stroke="white" stroke-width="2.39836"/>
<mask id="mask0_4204_55757" style="mask-type:alpha" maskUnits="userSpaceOnUse" x="2" y="2" width="32" height="38">
<path d="M3.97701 17.3224V6.25743L17.9979 3.98678L32.0188 6.25743V17.3224C32.0188 25.1457 27.8525 32.4576 20.9172 36.7162L17.9979 38.5088L15.0786 36.7162C8.14334 32.4576 3.97701 25.1457 3.97701 17.3224Z" fill="#0D78DE" stroke="white" stroke-width="2.39836"/>
</mask>
<g mask="url(#mask0_4204_55757)">
<rect opacity="0.2" width="19.0425" height="46.6954" transform="matrix(-1 0 0 1 17.9321 -2.13623)" fill="#00559B"/>
</g>
<path fill-rule="evenodd" clip-rule="evenodd" d="M17.9866 16.7937C18.2405 16.7937 18.4457 16.6402 18.472 16.4433L18.7208 13.1801C18.7208 12.8576 18.3974 12.5923 17.9861 12.5923C17.5777 12.5923 17.2534 12.8576 17.2534 13.1801L17.501 16.4454C17.5288 16.6415 17.7358 16.7937 17.9866 16.7937ZM16.0952 19.7865C16.2624 20.0307 16.2477 20.3014 16.0727 20.4206L13.0444 22.2151C12.7283 22.3687 12.2568 22.1842 11.9861 21.7886C11.7176 21.3963 11.7638 20.9576 12.0789 20.8043L15.4357 19.4856C15.6462 19.4194 15.9303 19.5453 16.0952 19.7865ZM17.9865 20.7136C18.2403 20.7136 18.445 20.867 18.472 21.0638L18.7208 24.3265C18.7208 24.6492 18.397 24.915 17.9856 24.915C17.5776 24.915 17.2534 24.6492 17.2534 24.3265L17.5005 21.0618C17.529 20.8662 17.7357 20.7136 17.9865 20.7136ZM20.4548 19.4864C20.2443 19.4189 19.9594 19.5426 19.793 19.7866C19.6281 20.0281 19.6405 20.2999 19.8141 20.4202L22.8444 22.2152C23.1604 22.3688 23.6327 22.1833 23.9009 21.791C24.172 21.3946 24.1255 20.9576 23.8098 20.8037L20.4548 19.4864ZM20.3418 18.0287C20.1313 18.0969 19.8467 17.9734 19.6794 17.7285C19.5151 17.4874 19.5283 17.2158 19.7008 17.0953L22.7319 15.3003C23.0476 15.1466 23.5197 15.332 23.7882 15.7245C24.0592 16.1202 24.0125 16.5578 23.6973 16.712L20.3418 18.0287ZM16.2987 17.7288C16.4656 17.4849 16.4506 17.2147 16.2759 17.0947L13.2469 15.3003C12.932 15.1467 12.4603 15.3312 12.1892 15.7273C11.9207 16.1196 11.9669 16.5575 12.2821 16.7111L15.6389 18.0296C15.8485 18.0963 16.1334 17.9698 16.2987 17.7288Z" fill="#FFC220"/>
<path fill-rule="evenodd" clip-rule="evenodd" d="M0 2.99856L18 0.0834961L36 2.99856V17.325C36 26.4845 31.1219 35.016 23.0509 39.972L18 43.0735L12.9491 39.972C4.87813 35.016 0 26.4845 0 17.325V2.99856ZM18 2.77457L2.77992 5.23943V17.325C2.77992 25.5821 7.17745 33.273 14.4532 37.7407L18 39.9186L21.5468 37.7407C28.8226 33.273 33.2201 25.5821 33.2201 17.325V5.23943L18 2.77457Z" fill="#29B8FF"/>
</svg>
